<svg xmlns="http://www.w3.org/2000/svg" version="1.1" xmlns:xlink="http://www.w3.org/1999/xlink" xmlns:svgjs="http://svgjs.com/svgjs" width="600" height="300" preserveAspectRatio="none" viewBox="0 0 600 300"><g mask="url(&quot;#SvgjsMask1057&quot;)" fill="none"><rect width="600" height="300" x="0" y="0" fill="rgba(46, 54, 139, 1)"></rect><path d="M0,189.882C35.89,189.909,68.645,173.158,99.488,154.806C131.257,135.903,158.349,112.014,180.547,82.453C207.572,46.463,242.518,10.23,241.846,-34.772C241.159,-80.757,214.54,-126.792,177.023,-153.391C141.477,-178.593,93.642,-168.52,50.123,-170.702C16.597,-172.383,-15.274,-170.376,-48.357,-164.69C-85.807,-158.254,-126.409,-158.976,-156.099,-135.26C-188.021,-109.761,-205.164,-70.487,-215.704,-31.014C-227.205,12.055,-242.578,62.197,-218.912,99.974C-195.172,137.87,-140.755,137.666,-99.39,154.655C-66.204,168.285,-35.876,189.855,0,189.882" fill="#242a6c"></path><path d="M600 523.322C647.414 530.248 698.998 542.518 740.7760000000001 519.052 783.043 495.31100000000004 800.024 444.632 819.293 400.148 838.2239999999999 356.444 855.162 311.339 851.311 263.867 847.315 214.613 828.745 167.159 797.3 129.039 765.399 90.36699999999999 723.573 54.63300000000001 673.797 48.67099999999999 625.835 42.92599999999999 585.988 81.29599999999999 540.779 98.31200000000001 499.68600000000004 113.78 454.09000000000003 116.30600000000001 420.13800000000003 144.148 382.552 174.971 351.28200000000004 215.304 340.359 262.669 328.996 311.945 331.124 367.828 358.79499999999996 410.155 385.519 451.034 439.172 460.709 483.387 481.453 521.55 499.358 558.289 517.229 600 523.322" fill="#3842aa"></path></g><defs><mask id="SvgjsMask1057"><rect width="600" height="300" fill="#ffffff"></rect></mask></defs></svg>